<svg width="49" height="49" viewBox="0 0 49 49" fill="none" xmlns="http://www.w3.org/2000/svg">
<path opacity="0.6" d="M24.499 49C19.6534 49 14.9167 47.5631 10.8877 44.871C6.85874 42.1789 3.71854 38.3525 1.86422 33.8758C0.00988913 29.399 -0.475292 24.4729 0.470027 19.7204C1.41535 14.9679 3.74871 10.6024 7.17505 7.17604C11.7755 2.6092 17.9982 0.0516497 24.4805 0.0635177C30.9627 0.0753856 37.1761 2.65571 41.7597 7.23936C46.3434 11.823 48.9237 18.0364 48.9356 24.5186C48.9474 31.0009 46.3899 37.2236 41.823 41.824C39.5533 44.1062 36.8535 45.9155 33.8798 47.1473C30.9062 48.379 27.7177 49.0088 24.499 49ZM18.278 20.547C18.1373 20.5473 18.0024 20.6033 17.9029 20.7029C17.8033 20.8024 17.7473 20.9373 17.747 21.078V25.4C17.7473 25.5408 17.8033 25.6757 17.9029 25.7752C18.0024 25.8747 18.1373 25.9308 18.278 25.931H21.705V36.831C21.7053 36.9718 21.7613 37.1067 21.8609 37.2062C21.9604 37.3057 22.0953 37.3618 22.236 37.362H26.712C26.8528 37.3618 26.9877 37.3057 27.0872 37.2062C27.1868 37.1067 27.2428 36.9718 27.243 36.831V25.941H31.254C31.3948 25.9408 31.5297 25.8847 31.6292 25.7852C31.7288 25.6857 31.7848 25.5508 31.785 25.41V21.083C31.785 20.9421 31.7291 20.807 31.6296 20.7072C31.53 20.6075 31.395 20.5513 31.254 20.551H27.247V18.028C27.247 16.813 27.537 16.197 29.12 16.197H31.42C31.561 16.1968 31.696 16.1406 31.7956 16.0409C31.8951 15.9411 31.951 15.806 31.951 15.665V11.639C31.9524 11.5684 31.9396 11.4983 31.9135 11.4326C31.8875 11.367 31.8486 11.3072 31.7992 11.2567C31.7497 11.2063 31.6908 11.1662 31.6257 11.1388C31.5606 11.1113 31.4907 11.0972 31.42 11.097H28.008C27.895 11.091 27.781 11.087 27.669 11.087C26.8417 11.0871 26.0233 11.2588 25.2656 11.5911C24.508 11.9235 23.8274 12.4093 23.267 13.018C22.7066 13.6266 22.2784 14.3448 22.0096 15.1273C21.7407 15.9098 21.637 16.7395 21.705 17.564V20.547H18.278Z" fill="white"/>
</svg>
