<svg xmlns="http://www.w3.org/2000/svg" width="57.59" height="57.586" viewBox="0 0 57.59 57.586">
  <g id="Group_163628" data-name="Group 163628" transform="translate(-920.369 -740.502)">
    <path id="Subtraction_2" data-name="Subtraction 2" d="M28.293,56.585A28.293,28.293,0,1,1,28.293,0a27.749,27.749,0,0,1,13.4,3.392,29.49,29.49,0,0,1,10.127,9.176A28.293,28.293,0,0,1,28.293,56.585Z" transform="translate(920.869 741.002)" fill="none" stroke="#000" stroke-width="1"/>
    <path id="Subtraction_15" data-name="Subtraction 15" d="M28.616,38.849H24.47a.493.493,0,0,1-.493-.492v-10.1H20.8a.493.493,0,0,1-.493-.493v-4a.493.493,0,0,1,.493-.492h3.173V20.512a5.544,5.544,0,0,1,5.52-6h3.472a.494.494,0,0,1,.35.148.483.483,0,0,1,.141.355v3.737a.493.493,0,0,1-.493.492H30.847c-1.466,0-1.735.571-1.735,1.7v2.337h3.711a.493.493,0,0,1,.493.492v4a.493.493,0,0,1-.493.493h-3.71V38.354a.492.492,0,0,1-.5.5Z" transform="translate(922.659 742.277)"/>
  </g>
</svg>
