<svg xmlns="http://www.w3.org/2000/svg" width="57.764" height="57.586" viewBox="0 0 57.764 57.586">
  <g id="Group_163630" data-name="Group 163630" transform="translate(-845 -741.189)">
    <path id="Subtraction_1" data-name="Subtraction 1" d="M28.293,56.585A28.293,28.293,0,0,1,28.293,0,27.817,27.817,0,0,1,40.44,2.755a29.272,29.272,0,0,1,9.719,7.582,26.824,26.824,0,0,1,4.679,8.112A28.344,28.344,0,0,1,28.293,56.585Z" transform="translate(845.5 741.689)" fill="none" stroke="#000" stroke-width="1"/>
    <path id="Subtraction_16" data-name="Subtraction 16" d="M28.934,42.962h0a13.757,13.757,0,0,1-12.119-7.245h-.01A13.762,13.762,0,0,1,37.706,18.6l-4.459,3.651a8.176,8.176,0,0,0-12.066,4.286,8.269,8.269,0,0,0,.075,5.523v.012h.005a8.193,8.193,0,0,0,11.8,4.193v-.007a8.244,8.244,0,0,0,3.528-4.187H29.224V26.631H42.452A13.761,13.761,0,0,1,28.934,42.962Z" transform="translate(844.823 740.738)"/>
  </g>
</svg>
