<svg xmlns="http://www.w3.org/2000/svg" width="64.93" height="48.001" viewBox="0 0 64.93 48.001">
  <path id="Path_17912" data-name="Path 17912" d="M593.926,157.479a2.569,2.569,0,0,1-3.6,0l-4.953-4.953v8.668a11.932,11.932,0,0,1-11.918,11.957h-22.6A11.964,11.964,0,0,1,538.9,161.194v-8.513l-4.8,4.8a2.523,2.523,0,0,1-3.6,0,2.569,2.569,0,0,1,0-3.637l8.4-8.4,5.108-5.108,13.04-13.04a7.287,7.287,0,0,1,10.332,0l26.545,26.545A2.569,2.569,0,0,1,593.926,157.479Zm-13.659-10.061L563.744,130.9a2.2,2.2,0,0,0-3.1,0l-16.639,16.639v13.659a6.837,6.837,0,0,0,6.849,6.849h22.6a6.829,6.829,0,0,0,6.81-6.849Z" transform="translate(-529.75 -125.15)" fill="#3a4b4c" fill-rule="evenodd"/>
</svg>
