<svg width="49" height="49" viewBox="0 0 49 49" fill="none" xmlns="http://www.w3.org/2000/svg">
<path opacity="0.6" d="M24.499 49C19.6534 49 14.9167 47.5631 10.8877 44.871C6.85874 42.1789 3.71854 38.3525 1.86422 33.8758C0.00988913 29.399 -0.475292 24.4729 0.470027 19.7204C1.41535 14.9679 3.74871 10.6024 7.17505 7.17604C11.7755 2.6092 17.9982 0.0516497 24.4805 0.0635177C30.9627 0.0753856 37.1761 2.65571 41.7597 7.23936C46.3434 11.823 48.9237 18.0364 48.9356 24.5186C48.9474 31.0009 46.3899 37.2236 41.823 41.824C39.5533 44.1062 36.8535 45.9155 33.8798 47.1473C30.9062 48.379 27.7177 49.0088 24.499 49ZM19.029 11.172C17.1133 11.1765 15.2772 11.9394 13.9223 13.2939C12.5675 14.6484 11.8041 16.4843 11.799 18.4V30.135C11.8043 32.0501 12.5674 33.8853 13.9216 35.2395C15.2758 36.5937 17.111 37.3568 19.026 37.362H30.765C32.6801 37.3568 34.5153 36.5937 35.8695 35.2395C37.2237 33.8853 37.9868 32.0501 37.992 30.135V18.4C37.9868 16.4849 37.2237 14.6498 35.8695 13.2956C34.5153 11.9414 32.6801 11.1783 30.765 11.173L19.029 11.172ZM30.766 35.038H19.029C17.7309 35.0336 16.4871 34.5159 15.5692 33.5979C14.6512 32.68 14.1335 31.4362 14.129 30.138V18.4C14.1338 17.1019 14.6516 15.8584 15.5695 14.9405C16.4874 14.0226 17.7309 13.5048 19.029 13.5H30.765C32.064 13.5035 33.3089 14.0207 34.2279 14.9387C35.1468 15.8567 35.6653 17.1011 35.67 18.4V30.135C35.6664 31.4344 35.1485 32.6795 34.2296 33.5983C33.3106 34.517 32.0654 35.0346 30.766 35.038ZM24.899 17.518C23.1088 17.518 21.3919 18.2292 20.1261 19.4951C18.8602 20.7609 18.149 22.4778 18.149 24.268C18.149 26.0583 18.8602 27.7751 20.1261 29.041C21.3919 30.3069 23.1088 31.018 24.899 31.018C26.6893 31.018 28.4061 30.3069 29.672 29.041C30.9379 27.7751 31.649 26.0583 31.649 24.268C31.649 22.4778 30.9379 20.7609 29.672 19.4951C28.4061 18.2292 26.6893 17.518 24.899 17.518ZM31.932 15.547C31.5362 15.5442 31.1518 15.6796 30.8451 15.9298C30.5385 16.18 30.3287 16.5294 30.252 16.9177C30.1753 17.306 30.2366 17.7089 30.4252 18.0569C30.6137 18.405 30.9179 18.6762 31.285 18.824C31.6491 18.9747 32.0541 18.9942 32.431 18.8793C32.8078 18.7644 33.133 18.5222 33.351 18.194C33.5229 17.9379 33.6218 17.6398 33.6371 17.3317C33.6525 17.0236 33.5837 16.7171 33.4382 16.4452C33.2927 16.1732 33.076 15.9459 32.8112 15.7877C32.5464 15.6295 32.2435 15.5463 31.935 15.547H31.932ZM24.899 28.692C23.7255 28.692 22.5999 28.2258 21.7701 27.396C20.9403 26.5661 20.474 25.4406 20.474 24.267C20.474 23.0935 20.9403 21.9679 21.7701 21.1381C22.5999 20.3082 23.7255 19.842 24.899 19.842C26.0726 19.842 27.1981 20.3082 28.028 21.1381C28.8578 21.9679 29.324 23.0935 29.324 24.267C29.324 25.4406 28.8578 26.5661 28.028 27.396C27.1981 28.2258 26.0726 28.692 24.899 28.692Z" fill="white"/>
</svg>
