<svg width="49" height="49" viewBox="0 0 49 49" fill="none" xmlns="http://www.w3.org/2000/svg">
<path opacity="0.6" d="M24.4009 49H24.3449C18.7248 48.9666 13.2864 47.0054 8.93854 43.4442C4.59066 39.8829 1.59667 34.9374 0.456886 29.434C-0.383204 25.1112 -0.0632958 20.6429 1.38407 16.4839C2.83143 12.3248 5.3546 8.62335 8.69689 5.756C12.2977 2.71873 16.7031 0.792707 21.3779 0.212C22.4433 0.0729842 23.5165 0.00217334 24.5909 0L24.6409 0C28.4954 0.00382651 32.2916 0.942309 35.7039 2.735C39.0094 4.48164 41.8833 6.9442 44.1159 9.943C46.4191 13.0131 47.9639 16.5841 48.6243 20.3649C49.2847 24.1456 49.0419 28.0289 47.9159 31.698C46.3758 36.87 43.1406 41.3735 38.7309 44.484C36.6429 45.9533 34.3395 47.0895 31.9029 47.852C29.4752 48.6141 26.9454 49.0012 24.4009 49ZM29.5009 23.008C30.0604 22.9831 30.6094 23.1661 31.0421 23.5217C31.4748 23.8772 31.7608 24.3803 31.8449 24.934L31.9589 25.316L31.9739 29.874L31.9909 34.432H37.0439V29.742C37.0439 26.756 37.0259 24.874 36.9929 24.576C36.6759 21.676 35.2499 19.809 32.8669 19.181C32.334 19.0717 31.7908 19.0208 31.2469 19.029C30.9333 19.0219 30.6198 19.0457 30.3109 19.1C29.0127 19.4543 27.854 20.1976 26.9909 21.23L26.7909 21.468V19.36H21.7299V34.433H26.7909V30.044C26.7909 25.169 26.7909 25.169 27.0909 24.563C27.2995 24.0981 27.6385 23.7038 28.0668 23.4277C28.4951 23.1517 28.9943 23.0059 29.5039 23.008H29.5009ZM13.9449 19.362V34.433H19.0019V19.36H13.9499L13.9449 19.362ZM16.5549 12.089C16.2352 12.09 15.9169 12.132 15.6079 12.214C15.0459 12.3664 14.5513 12.703 14.2034 13.17C13.8555 13.6369 13.6744 14.2071 13.6892 14.7893C13.7039 15.3714 13.9137 15.9317 14.2848 16.3804C14.6559 16.8291 15.1669 17.1403 15.7359 17.264C15.9902 17.317 16.2491 17.3441 16.5089 17.345C16.8924 17.3549 17.2741 17.2885 17.6319 17.1498C17.9896 17.0111 18.3162 16.8028 18.5929 16.537C18.8299 16.2974 19.0162 16.0125 19.1406 15.6992C19.265 15.386 19.3249 15.0509 19.3169 14.714C19.3182 14.3577 19.2468 14.0049 19.1071 13.6772C18.9675 13.3494 18.7625 13.0536 18.5046 12.8077C18.2468 12.5618 17.9415 12.3711 17.6075 12.2472C17.2735 12.1233 16.9177 12.0688 16.5619 12.087L16.5549 12.089Z" fill="white"/>
</svg>
