<svg xmlns="http://www.w3.org/2000/svg" width="32.968" height="52.161" viewBox="0 0 32.968 52.161">
  <path id="Path_17913" data-name="Path 17913" d="M360.509,139.572v-5.649a11.725,11.725,0,0,0-23.449,0v11.144h28.209v15.671a8.81,8.81,0,0,1-8.784,8.822h-15.4a8.81,8.81,0,0,1-8.784-8.822V133.923a16.484,16.484,0,1,1,32.968,0v5.649Zm-23.449,10.254v10.912a4.021,4.021,0,0,0,4.024,4.024h15.4a4,4,0,0,0,4.024-4.024V149.826Z" transform="translate(-332.3 -117.4)" fill="#3a4b4c" fill-rule="evenodd"/>
</svg>
