<svg width="48" height="48" viewBox="0 0 48 48" fill="none" xmlns="http://www.w3.org/2000/svg">
<path opacity="0.6" d="M24.0001 48.0001C20.8472 48.0087 17.724 47.3919 14.8111 46.1854C11.8982 44.9789 9.25324 43.2066 7.02988 40.9711C4.79404 38.7477 3.02174 36.1029 1.81503 33.1898C0.608325 30.2767 -0.00860579 27.1532 9.34943e-05 24.0001C-0.00873676 20.847 0.60801 17.7235 1.81455 14.8105C3.02108 11.8974 4.79325 9.25253 7.0289 7.02909C9.25238 4.79348 11.8976 3.02111 14.8106 1.81458C17.7237 0.608047 20.847 -0.00868268 24.0001 9.2339e-05C27.1531 -0.00868268 30.2765 0.608047 33.1895 1.81458C36.1026 3.02111 38.7478 4.79348 40.9713 7.02909C43.2069 9.25253 44.9791 11.8974 46.1856 14.8105C47.3922 17.7235 48.0089 20.847 48.0001 24.0001C48.0088 27.1532 47.3919 30.2767 46.1852 33.1898C44.9784 36.1029 43.2061 38.7477 40.9703 40.9711C38.747 43.2066 36.102 44.9789 33.1891 46.1854C30.2762 47.3919 27.153 48.0087 24.0001 48.0001ZM25.0533 23.6671L23.1593 25.9421C22.9593 26.2191 22.6163 26.6721 22.3873 26.9761C22.1657 27.2554 21.9266 27.5205 21.672 27.7701C21.218 28.2351 20.8259 28.6371 20.9469 28.8701C21.1299 29.2271 25.6031 36.7821 25.6861 36.8701C25.7594 36.9448 25.8469 37.0041 25.9435 37.0445C26.04 37.0848 26.1435 37.1055 26.2481 37.1051C26.3544 37.1048 26.4594 37.0833 26.5572 37.0419C26.6551 37.0006 26.7437 36.9401 26.818 36.8641C26.918 36.7641 28.775 31.1331 30.462 25.9491C32.149 20.7651 33.9619 15.1151 33.9459 14.9561C33.9129 14.4921 33.7463 14.3111 33.3463 14.3111C32.8286 14.3577 32.32 14.4789 31.837 14.6711C31.22 14.8771 26.4051 16.4541 21.1051 18.1851C14.1851 20.4451 11.458 21.3541 11.378 21.4281C11.303 21.5021 11.2436 21.5902 11.2027 21.6873C11.1619 21.7845 11.1407 21.8887 11.1402 21.9941C11.1407 22.0995 11.1619 22.2037 11.2027 22.3008C11.2436 22.398 11.303 22.4861 11.378 22.5601C11.462 22.6401 18.7483 26.7451 19.1783 26.9731C19.2067 26.9865 19.2377 26.993 19.2691 26.9921C20.0476 26.6928 20.7675 26.2593 21.3961 25.7111L21.4332 25.6831C21.6152 25.5451 22.0839 25.1941 22.4669 24.9111L25.0533 23.6671Z" fill="white"/>
</svg>
