<svg xmlns="http://www.w3.org/2000/svg" width="57.635" height="57.598" viewBox="0 0 57.635 57.598">
  <g id="Group_163629" data-name="Group 163629" transform="translate(-995.44 -740.461)">
    <path id="Subtraction_1" data-name="Subtraction 1" d="M28.284,56.569a28.277,28.277,0,1,1,11.01-2.223,28.277,28.277,0,0,1-11.01,2.223Z" transform="translate(995.929 740.99)" fill="none" stroke="#000" stroke-width="1"/>
    <path id="Subtraction_35" data-name="Subtraction 35" d="M22.627,38.735h-.218a16.285,16.285,0,0,1-8.841-2.6,10.732,10.732,0,0,0,1.306.091h.094a11.768,11.768,0,0,0,7.182-2.475,5.884,5.884,0,0,1-5.424-4.043,5.332,5.332,0,0,0,1.021.1h.122a5.848,5.848,0,0,0,1.484-.192A5.852,5.852,0,0,1,14.705,23.9V23.84a5.767,5.767,0,0,0,2.62.716A5.821,5.821,0,0,1,15.54,16.8,16.467,16.467,0,0,0,27.5,22.874a5.969,5.969,0,0,1-.135-1.324A5.8,5.8,0,0,1,37.4,17.579a11.58,11.58,0,0,0,3.683-1.4,5.761,5.761,0,0,1-2.554,3.207,12.117,12.117,0,0,0,3.348-.915,11.527,11.527,0,0,1-2.913,3.013c.014.286.021.518.021.75a16.509,16.509,0,0,1-4.8,11.7,16.3,16.3,0,0,1-11.556,4.8h0Z" transform="translate(997.132 741.559)"/>
  </g>
</svg>
