<svg width="34" height="44" viewBox="0 0 34 44" fill="none" xmlns="http://www.w3.org/2000/svg">
<path fill-rule="evenodd" clip-rule="evenodd" d="M32.232 36.526C32.0636 36.5278 31.8966 36.4946 31.7417 36.4285C31.5868 36.3624 31.4473 36.2648 31.332 36.142L28.865 33.675V38.024C28.8603 39.6103 28.2268 41.1301 27.1034 42.2501C25.98 43.3701 24.4584 43.999 22.872 43.999H11.566C9.98249 43.9953 8.46487 43.3646 7.34514 42.2449C6.22541 41.1252 5.59472 39.6075 5.59102 38.024V33.73L3.17903 36.142C2.93914 36.3819 2.61377 36.5167 2.27452 36.5167C1.93527 36.5167 1.60991 36.3819 1.37003 36.142C1.13014 35.9021 0.995361 35.5768 0.995361 35.2375C0.995361 34.8983 1.13014 34.5729 1.37003 34.333L5.59102 30.112V11.639C5.59102 8.55202 6.81732 5.59148 9.00015 3.40865C11.183 1.22582 14.1435 -0.000488281 17.2305 -0.000488281C20.3175 -0.000488281 23.2781 1.22582 25.4609 3.40865C27.6437 5.59148 28.87 8.55202 28.87 11.639V24.558L26.312 22V11.64C26.312 9.23145 25.3552 6.92153 23.6521 5.21842C21.949 3.51531 19.6391 2.55851 17.2305 2.55851C14.822 2.55851 12.512 3.51531 10.8089 5.21842C9.10582 6.92153 8.14902 9.23145 8.14902 11.64V27.555L14.672 21.032C15.3583 20.3474 16.2881 19.963 17.2575 19.963C18.2269 19.963 19.1567 20.3474 19.843 21.032L33.143 34.332C33.3214 34.5126 33.4424 34.7419 33.4909 34.9911C33.5393 35.2403 33.5131 35.4982 33.4154 35.7325C33.3178 35.9668 33.1531 36.167 32.942 36.308C32.7309 36.449 32.4829 36.5245 32.229 36.525L32.232 36.526ZM26.312 31.117L18.035 22.84C17.8271 22.6379 17.5485 22.5248 17.2585 22.5248C16.9685 22.5248 16.69 22.6379 16.482 22.84L8.15002 31.172V38.024C8.15161 38.9298 8.51212 39.798 9.15259 40.4384C9.79306 41.0789 10.6613 41.4394 11.567 41.441H22.878C23.7866 41.4431 24.6588 41.0844 25.3029 40.4436C25.947 39.8029 26.3104 38.9326 26.313 38.024L26.312 31.117Z" fill="white"/>
</svg>
