<svg width="722" height="221" viewBox="0 0 722 221" fill="none" xmlns="http://www.w3.org/2000/svg">
<path d="M160.857 181.202C162.049 180.008 162.719 178.39 162.719 176.702C162.719 175.015 162.049 173.397 160.857 172.202L94.4575 105.762C91.0336 102.342 86.392 100.421 81.5525 100.421C76.7129 100.421 72.0714 102.342 68.6475 105.762L36.0675 138.342V58.8723C35.9782 52.8622 37.0849 46.8943 39.3232 41.3157C41.5614 35.7372 44.8865 30.6594 49.1051 26.3777C53.3237 22.096 58.3515 18.6958 63.8962 16.375C69.4409 14.0541 75.3917 12.859 81.4025 12.859C87.4133 12.859 93.3641 14.0541 98.9088 16.375C104.453 18.6958 109.481 22.096 113.7 26.3777C117.918 30.6594 121.244 35.7372 123.482 41.3157C125.72 46.8943 126.827 52.8622 126.737 58.8723V110.592L139.507 123.362V58.8723C139.608 51.1777 138.18 43.5397 135.305 36.4015C132.431 29.2634 128.167 22.7674 122.761 17.2904C117.356 11.8135 110.916 7.46473 103.816 4.49658C96.7164 1.52843 89.0978 0 81.4025 0C73.7073 0 66.0886 1.52843 58.9888 4.49658C51.889 7.46473 45.4494 11.8135 40.0439 17.2904C34.6383 22.7674 30.3744 29.2634 27.4997 36.4015C24.6249 43.5397 23.1965 51.1777 23.2975 58.8723V151.122L2.29747 172.122C1.6157 172.691 1.0599 173.395 0.665449 174.19C0.271001 174.986 0.0465838 175.855 0.00651307 176.741C-0.0335576 177.628 0.111604 178.514 0.432722 179.341C0.753839 180.169 1.24384 180.92 1.87156 181.548C2.49928 182.176 3.25092 182.666 4.07853 182.987C4.90615 183.308 5.79162 183.453 6.67845 183.413C7.56527 183.373 8.43401 183.149 9.22929 182.754C10.0246 182.36 10.7289 181.804 11.2975 181.122L23.2975 169.122V190.562C23.3054 198.476 26.4512 206.063 32.045 211.661C37.6388 217.258 45.224 220.409 53.1375 220.422H109.627C117.544 220.414 125.135 217.266 130.733 211.668C136.331 206.07 139.48 198.479 139.487 190.562V168.892L151.808 181.202C153.004 182.389 154.622 183.056 156.308 183.056C157.993 183.056 159.611 182.389 160.808 181.202H160.857ZM126.737 190.562C126.732 195.093 124.93 199.437 121.726 202.641C118.522 205.845 114.178 207.647 109.648 207.652H53.1375C48.6066 207.647 44.2627 205.845 41.0589 202.641C37.855 199.437 36.0528 195.093 36.0475 190.562V156.422L77.6875 114.762C78.1955 114.254 78.7988 113.85 79.4628 113.575C80.1269 113.3 80.8386 113.158 81.5575 113.158C82.2763 113.158 82.9881 113.3 83.6521 113.575C84.3162 113.85 84.9195 114.254 85.4275 114.762L126.737 156.072V190.562Z" fill="#3A4B4C"/>
<path d="M318.688 155.566H229.406L317.297 64.9719C318.193 64.0402 318.796 62.8662 319.03 61.5953C319.265 60.3245 319.122 59.0126 318.618 57.8225C318.115 56.6323 317.273 55.6161 316.197 54.8997C315.121 54.1833 313.859 53.7983 312.567 53.7924H221.818C220.415 53.7924 219.069 54.3498 218.077 55.342C217.085 56.3341 216.528 57.6798 216.528 59.0829C216.528 60.486 217.085 61.8317 218.077 62.8238C219.069 63.816 220.415 64.3733 221.818 64.3733H303.241L214.423 156.068C213.596 156.892 213.037 157.947 212.82 159.095C212.603 160.242 212.738 161.428 213.207 162.498C213.663 163.571 214.424 164.486 215.395 165.131C216.366 165.776 217.505 166.123 218.671 166.128H318.9C320.245 166.046 321.509 165.455 322.433 164.473C323.357 163.492 323.871 162.195 323.871 160.847C323.871 159.499 323.357 158.202 322.433 157.221C321.509 156.239 320.245 155.648 318.9 155.566H318.688Z" fill="#3A4B4C"/>
<path d="M449.675 56.3025L402.852 99.4757L355.914 56.3025C354.869 55.5019 353.562 55.12 352.25 55.2315C350.938 55.3429 349.714 55.9397 348.819 56.9053C347.923 57.8708 347.42 59.1356 347.407 60.4524C347.395 61.7692 347.874 63.0434 348.751 64.0258L397.601 108.918V160.779C397.601 162.183 398.158 163.528 399.15 164.52C400.142 165.513 401.488 166.07 402.891 166.07C404.291 166.07 405.634 165.515 406.625 164.527C407.617 163.539 408.176 162.199 408.182 160.799V108.937L456.877 64.0065C457.462 63.5586 457.947 62.9934 458.301 62.3472C458.655 61.701 458.87 60.988 458.932 60.2539C458.994 59.5198 458.903 58.7807 458.663 58.0841C458.423 57.3874 458.04 56.7486 457.539 56.2084C457.038 55.6682 456.43 55.2386 455.753 54.9471C455.077 54.6557 454.347 54.5088 453.61 54.5158C452.873 54.5229 452.146 54.6837 451.475 54.988C450.804 55.2924 450.204 55.7335 449.714 56.2832L449.675 56.3025Z" fill="#3A4B4C"/>
<path d="M590.451 54.5648C589.21 53.912 587.759 53.7792 586.42 54.1956C585.08 54.612 583.96 55.5435 583.307 56.7853L535.867 147.129L488.407 56.708C488.09 56.0835 487.651 55.5283 487.117 55.0747C486.583 54.6211 485.964 54.2781 485.296 54.0656C484.628 53.8532 483.925 53.7755 483.227 53.837C482.529 53.8986 481.85 54.0982 481.23 54.4243C480.61 54.7504 480.061 55.1965 479.614 55.7366C479.168 56.2768 478.833 56.9002 478.63 57.5707C478.426 58.2412 478.358 58.9455 478.429 59.6426C478.5 60.3397 478.709 61.0158 479.043 61.6316L530.596 159.756C531.101 160.714 531.858 161.516 532.785 162.076C533.712 162.636 534.774 162.931 535.857 162.931C536.94 162.931 538.003 162.636 538.93 162.076C539.857 161.516 540.614 160.714 541.119 159.756L592.672 61.6316C593.3 60.3974 593.42 58.966 593.005 57.6447C592.59 56.3234 591.673 55.2177 590.451 54.5648Z" fill="#3A4B4C"/>
<path d="M663.533 52.7112C652.16 52.7112 641.042 56.084 631.586 62.403C622.13 68.722 614.76 77.7035 610.408 88.2113C606.057 98.7192 604.919 110.282 607.139 121.436C609.36 132.59 614.838 142.836 622.881 150.877C630.925 158.917 641.172 164.392 652.327 166.609C663.483 168.825 675.045 167.684 685.551 163.329C696.057 158.974 705.036 151.601 711.352 142.142C717.668 132.684 721.037 121.565 721.033 110.192C721.013 94.95 714.948 80.3385 704.168 69.5626C693.389 58.7868 678.775 52.7265 663.533 52.7112ZM663.533 157.13C654.249 157.134 645.172 154.384 637.451 149.229C629.729 144.074 623.71 136.744 620.154 128.168C616.599 119.591 615.666 110.153 617.475 101.046C619.284 91.9401 623.753 83.5746 630.317 77.0082C636.88 70.4418 645.244 65.9695 654.35 64.1568C663.455 62.3441 672.894 63.2725 681.472 66.8246C690.05 70.3767 697.382 76.3929 702.54 84.1123C707.699 91.8317 710.452 100.908 710.452 110.192C710.432 122.629 705.482 134.551 696.687 143.346C687.893 152.141 675.971 157.09 663.533 157.111V157.13Z" fill="#3A4B4C"/>
</svg>
