<svg width="125" height="142" viewBox="0 0 125 142" fill="none" xmlns="http://www.w3.org/2000/svg">
<path d="M106.191 142H18.191C13.4171 142 8.83909 140.103 5.46344 136.728C2.08779 133.352 0.190979 128.774 0.190979 124V96H124.191V124C124.191 128.774 122.294 133.352 118.919 136.728C115.543 140.103 110.965 142 106.191 142ZM124.191 94H0.190979V18C0.190979 13.2261 2.08779 8.64812 5.46344 5.27246C8.83909 1.89681 13.4171 0 18.191 0H106.191C110.965 0 115.543 1.89681 118.919 5.27246C122.294 8.64812 124.191 13.2261 124.191 18V94Z" fill="#3A4B4C"/>
<path d="M35.717 36.25V29.802H48.613V75H41.483V36.25H35.717ZM58.1988 40.962C58.4468 37.118 59.9141 34.1213 62.6008 31.972C65.3288 29.8227 68.8008 28.748 73.0168 28.748C75.9101 28.748 78.4108 29.2647 80.5188 30.298C82.6268 31.3313 84.2181 32.7367 85.2928 34.514C86.3675 36.2913 86.9048 38.296 86.9048 40.528C86.9048 43.0907 86.2228 45.2813 84.8588 47.1C83.4948 48.9187 81.8621 50.138 79.9608 50.758V51.006C82.3995 51.75 84.3008 53.114 85.6648 55.098C87.0288 57.0407 87.7108 59.5413 87.7108 62.6C87.7108 65.0387 87.1528 67.2087 86.0368 69.11C84.9208 71.0113 83.2675 72.52 81.0768 73.636C78.8861 74.7107 76.2615 75.248 73.2028 75.248C68.7388 75.248 65.0601 74.1113 62.1668 71.838C59.3148 69.5233 57.7855 66.2167 57.5788 61.918H64.3988C64.5641 64.1087 65.4115 65.9067 66.9408 67.312C68.4701 68.676 70.5368 69.358 73.1408 69.358C75.6621 69.358 77.6048 68.676 78.9688 67.312C80.3328 65.9067 81.0148 64.1087 81.0148 61.918C81.0148 59.0247 80.0848 56.9787 78.2248 55.78C76.4061 54.54 73.5955 53.92 69.7928 53.92H68.1808V48.092H69.8548C73.2028 48.0507 75.7448 47.4927 77.4808 46.418C79.2581 45.3433 80.1468 43.6487 80.1468 41.334C80.1468 39.35 79.5061 37.7793 78.2248 36.622C76.9435 35.4233 75.1248 34.824 72.7688 34.824C70.4541 34.824 68.6561 35.4233 67.3748 36.622C66.0935 37.7793 65.3288 39.226 65.0808 40.962H58.1988Z" fill="white"/>
<path d="M21.2146 106.545H23.7373L29.6691 121.034H29.8737L35.8055 106.545H38.3282V124H36.351V110.739H36.1805L30.726 124H28.8169L23.3623 110.739H23.1919V124H21.2146V106.545ZM42.2934 124V110.909H44.3048V124H42.2934ZM43.3162 108.727C42.9241 108.727 42.586 108.594 42.3019 108.327C42.0235 108.06 41.8843 107.739 41.8843 107.364C41.8843 106.989 42.0235 106.668 42.3019 106.401C42.586 106.134 42.9241 106 43.3162 106C43.7082 106 44.0434 106.134 44.3218 106.401C44.6059 106.668 44.748 106.989 44.748 107.364C44.748 107.739 44.6059 108.06 44.3218 108.327C44.0434 108.594 43.7082 108.727 43.3162 108.727ZM50.0001 116.125V124H47.9887V110.909H49.9319V112.955H50.1024C50.4092 112.29 50.8751 111.756 51.5001 111.352C52.1251 110.943 52.9319 110.739 53.9206 110.739C54.8069 110.739 55.5825 110.92 56.2473 111.284C56.912 111.642 57.4291 112.188 57.7984 112.92C58.1677 113.648 58.3524 114.568 58.3524 115.682V124H56.341V115.818C56.341 114.79 56.074 113.989 55.5399 113.415C55.0058 112.835 54.2728 112.545 53.341 112.545C52.699 112.545 52.1251 112.685 51.6194 112.963C51.1194 113.241 50.7245 113.648 50.4348 114.182C50.145 114.716 50.0001 115.364 50.0001 116.125ZM70.2778 118.648V110.909H72.2892V124H70.2778V121.784H70.1414C69.8346 122.449 69.3573 123.014 68.7096 123.48C68.0619 123.94 67.2437 124.17 66.2551 124.17C65.4369 124.17 64.7096 123.991 64.0733 123.634C63.4369 123.27 62.9369 122.724 62.5733 121.997C62.2096 121.264 62.0278 120.341 62.0278 119.227V110.909H64.0392V119.091C64.0392 120.045 64.3062 120.807 64.8403 121.375C65.3801 121.943 66.0676 122.227 66.9028 122.227C67.4028 122.227 67.9113 122.099 68.4284 121.844C68.9511 121.588 69.3886 121.196 69.7409 120.668C70.0988 120.139 70.2778 119.466 70.2778 118.648ZM81.6663 110.909V112.614H74.8822V110.909H81.6663ZM76.8595 107.773H78.8708V120.25C78.8708 120.818 78.9532 121.244 79.118 121.528C79.2885 121.807 79.5044 121.994 79.7657 122.091C80.0328 122.182 80.314 122.227 80.6095 122.227C80.8311 122.227 81.0129 122.216 81.1549 122.193C81.297 122.165 81.4106 122.142 81.4958 122.125L81.9049 123.932C81.7686 123.983 81.5782 124.034 81.3339 124.085C81.0896 124.142 80.7799 124.17 80.4049 124.17C79.8367 124.17 79.2799 124.048 78.7345 123.804C78.1947 123.56 77.7458 123.188 77.3879 122.688C77.0356 122.188 76.8595 121.557 76.8595 120.795V107.773ZM90.0399 124.273C88.7785 124.273 87.6904 123.994 86.7757 123.438C85.8666 122.875 85.1649 122.091 84.6706 121.085C84.1819 120.074 83.9376 118.898 83.9376 117.557C83.9376 116.216 84.1819 115.034 84.6706 114.011C85.1649 112.983 85.8524 112.182 86.7331 111.608C87.6194 111.028 88.6535 110.739 89.8353 110.739C90.5171 110.739 91.1904 110.852 91.8552 111.08C92.52 111.307 93.1251 111.676 93.6706 112.188C94.216 112.693 94.6507 113.364 94.9745 114.199C95.2984 115.034 95.4603 116.062 95.4603 117.284V118.136H85.3694V116.398H93.4149C93.4149 115.659 93.2671 115 92.9717 114.42C92.6819 113.841 92.2671 113.384 91.7274 113.048C91.1933 112.713 90.5626 112.545 89.8353 112.545C89.0342 112.545 88.341 112.744 87.7558 113.142C87.1762 113.534 86.7302 114.045 86.4177 114.676C86.1052 115.307 85.949 115.983 85.949 116.705V117.864C85.949 118.852 86.1194 119.69 86.4603 120.378C86.8069 121.06 87.287 121.58 87.9007 121.938C88.5143 122.29 89.2274 122.466 90.0399 122.466C90.5683 122.466 91.0456 122.392 91.4717 122.244C91.9035 122.091 92.2757 121.864 92.5882 121.562C92.9007 121.256 93.1421 120.875 93.3126 120.42L95.2558 120.966C95.0512 121.625 94.7075 122.205 94.2245 122.705C93.7416 123.199 93.145 123.585 92.4348 123.864C91.7245 124.136 90.9262 124.273 90.0399 124.273ZM107.793 113.841L105.986 114.352C105.872 114.051 105.705 113.759 105.483 113.474C105.267 113.185 104.972 112.946 104.597 112.759C104.222 112.571 103.742 112.477 103.156 112.477C102.355 112.477 101.688 112.662 101.154 113.031C100.625 113.395 100.361 113.858 100.361 114.42C100.361 114.92 100.543 115.315 100.906 115.605C101.27 115.895 101.838 116.136 102.611 116.33L104.554 116.807C105.725 117.091 106.597 117.526 107.171 118.111C107.744 118.69 108.031 119.437 108.031 120.352C108.031 121.102 107.815 121.773 107.384 122.364C106.957 122.955 106.361 123.42 105.594 123.761C104.827 124.102 103.935 124.273 102.918 124.273C101.582 124.273 100.477 123.983 99.6024 123.403C98.7274 122.824 98.1734 121.977 97.9404 120.864L99.8495 120.386C100.031 121.091 100.375 121.619 100.881 121.972C101.392 122.324 102.06 122.5 102.884 122.5C103.821 122.5 104.565 122.301 105.117 121.903C105.673 121.5 105.952 121.017 105.952 120.455C105.952 120 105.793 119.619 105.475 119.312C105.156 119 104.668 118.767 104.009 118.614L101.827 118.102C100.628 117.818 99.7473 117.378 99.1848 116.781C98.6279 116.179 98.3495 115.426 98.3495 114.523C98.3495 113.784 98.5569 113.131 98.9717 112.562C99.3921 111.994 99.9632 111.548 100.685 111.224C101.412 110.901 102.236 110.739 103.156 110.739C104.452 110.739 105.469 111.023 106.207 111.591C106.952 112.159 107.48 112.909 107.793 113.841Z" fill="white"/>
</svg>
