<svg width="125" height="142" viewBox="0 0 125 142" fill="none" xmlns="http://www.w3.org/2000/svg">
<path d="M106.188 142H18.188C13.4141 142 8.8361 140.103 5.46045 136.728C2.08479 133.352 0.187988 128.774 0.187988 124V96H124.188V124C124.188 128.774 122.291 133.352 118.916 136.728C115.54 140.103 110.962 142 106.188 142ZM124.188 94H0.187988V18C0.187988 13.2261 2.08479 8.64812 5.46045 5.27246C8.8361 1.89681 13.4141 0 18.188 0H106.188C110.962 0 115.54 1.89681 118.916 5.27246C122.291 8.64812 124.188 13.2261 124.188 18V94Z" fill="#3A4B4C"/>
<path d="M50.439 40.28C49.9843 38.3787 49.1576 36.9527 47.959 36.002C46.7603 35.0513 45.0863 34.576 42.937 34.576C39.6716 34.576 37.233 35.8367 35.621 38.358C34.009 40.838 33.1616 44.9713 33.079 50.758C34.1536 48.9393 35.7243 47.534 37.791 46.542C39.8576 45.55 42.0896 45.054 44.487 45.054C47.215 45.054 49.6123 45.6533 51.679 46.852C53.787 48.0093 55.4196 49.704 56.577 51.936C57.7756 54.168 58.375 56.834 58.375 59.934C58.375 62.8273 57.7963 65.4107 56.639 67.684C55.523 69.9573 53.849 71.7553 51.617 73.078C49.385 74.3593 46.6983 75 43.557 75C39.2996 75 35.9516 74.07 33.513 72.21C31.1156 70.3087 29.421 67.6427 28.429 64.212C27.4783 60.7813 27.003 56.5033 27.003 51.378C27.003 36.25 32.335 28.686 42.999 28.686C47.1323 28.686 50.377 29.802 52.733 32.034C55.1303 34.266 56.5356 37.0147 56.949 40.28H50.439ZM42.937 51.006C40.4156 51.006 38.2663 51.7707 36.489 53.3C34.753 54.788 33.885 56.958 33.885 59.81C33.885 62.662 34.691 64.9353 36.303 66.63C37.9563 68.2833 40.2503 69.11 43.185 69.11C45.789 69.11 47.835 68.304 49.323 66.692C50.8523 65.08 51.617 62.9307 51.617 60.244C51.617 57.4333 50.873 55.2013 49.385 53.548C47.9383 51.8533 45.789 51.006 42.937 51.006ZM65.9143 51.812C65.9143 44.6613 67.1129 39.0813 69.5103 35.072C71.9489 31.0213 76.1236 28.996 82.0343 28.996C87.9449 28.996 92.0989 31.0213 94.4963 35.072C96.9349 39.0813 98.1543 44.6613 98.1543 51.812C98.1543 59.0453 96.9349 64.708 94.4963 68.8C92.0989 72.8507 87.9449 74.876 82.0343 74.876C76.1236 74.876 71.9489 72.8507 69.5103 68.8C67.1129 64.708 65.9143 59.0453 65.9143 51.812ZM91.2103 51.812C91.2103 48.464 90.9829 45.6327 90.5283 43.318C90.1149 41.0033 89.2469 39.1227 87.9243 37.676C86.6016 36.188 84.6383 35.444 82.0343 35.444C79.4303 35.444 77.4669 36.188 76.1443 37.676C74.8216 39.1227 73.9329 41.0033 73.4783 43.318C73.0649 45.6327 72.8583 48.464 72.8583 51.812C72.8583 55.284 73.0649 58.198 73.4783 60.554C73.8916 62.91 74.7596 64.8113 76.0823 66.258C77.4463 67.7047 79.4303 68.428 82.0343 68.428C84.6383 68.428 86.6016 67.7047 87.9243 66.258C89.2883 64.8113 90.1769 62.91 90.5903 60.554C91.0036 58.198 91.2103 55.284 91.2103 51.812Z" fill="white"/>
<path d="M43.426 124H38.0396V106.545H43.6646C45.3578 106.545 46.8066 106.895 48.0112 107.594C49.2157 108.287 50.139 109.284 50.7811 110.585C51.4231 111.881 51.7441 113.432 51.7441 115.239C51.7441 117.057 51.4203 118.622 50.7726 119.935C50.1248 121.241 49.1816 122.247 47.943 122.952C46.7044 123.651 45.1987 124 43.426 124ZM40.1532 122.125H43.2896C44.7328 122.125 45.9288 121.847 46.8777 121.29C47.8265 120.733 48.5339 119.94 48.9998 118.912C49.4657 117.884 49.6987 116.659 49.6987 115.239C49.6987 113.83 49.4686 112.616 49.0084 111.599C48.5481 110.577 47.8606 109.793 46.9459 109.247C46.0311 108.696 44.8919 108.42 43.5282 108.42H40.1532V122.125ZM58.8691 124.307C58.0396 124.307 57.2868 124.151 56.6106 123.838C55.9345 123.52 55.3976 123.062 54.9998 122.466C54.6021 121.864 54.4032 121.136 54.4032 120.284C54.4032 119.534 54.551 118.926 54.8464 118.46C55.1419 117.989 55.5368 117.619 56.0311 117.352C56.5254 117.085 57.0709 116.886 57.6674 116.756C58.2697 116.619 58.8748 116.511 59.4828 116.432C60.2782 116.33 60.9231 116.253 61.4174 116.202C61.9174 116.145 62.2811 116.051 62.5084 115.92C62.7413 115.79 62.8578 115.562 62.8578 115.239V115.17C62.8578 114.33 62.6277 113.676 62.1674 113.21C61.7129 112.744 61.0226 112.511 60.0964 112.511C59.1362 112.511 58.3834 112.722 57.8379 113.142C57.2924 113.562 56.9089 114.011 56.6873 114.489L54.7782 113.807C55.1191 113.011 55.5737 112.392 56.1419 111.949C56.7157 111.5 57.3407 111.187 58.0169 111.011C58.6987 110.83 59.3691 110.739 60.0282 110.739C60.4487 110.739 60.9316 110.79 61.4771 110.892C62.0282 110.989 62.5595 111.19 63.0709 111.497C63.5879 111.804 64.0169 112.267 64.3578 112.886C64.6987 113.506 64.8691 114.335 64.8691 115.375V124H62.8578V122.227H62.7555C62.6191 122.511 62.3919 122.815 62.0737 123.139C61.7555 123.463 61.3322 123.739 60.8038 123.966C60.2754 124.193 59.6305 124.307 58.8691 124.307ZM59.176 122.5C59.9714 122.5 60.6419 122.344 61.1873 122.031C61.7385 121.719 62.1532 121.315 62.4316 120.821C62.7157 120.327 62.8578 119.807 62.8578 119.261V117.42C62.7726 117.523 62.5851 117.616 62.2953 117.702C62.0112 117.781 61.6816 117.852 61.3066 117.915C60.9373 117.972 60.5765 118.023 60.2243 118.068C59.8777 118.108 59.5964 118.142 59.3805 118.17C58.8578 118.239 58.3691 118.349 57.9146 118.503C57.4657 118.651 57.1021 118.875 56.8237 119.176C56.551 119.472 56.4146 119.875 56.4146 120.386C56.4146 121.085 56.6731 121.614 57.1902 121.972C57.7129 122.324 58.3748 122.5 59.176 122.5ZM69.367 128.909C69.0261 128.909 68.7221 128.881 68.4551 128.824C68.188 128.773 68.0034 128.722 67.9011 128.67L68.4125 126.898C68.9011 127.023 69.3329 127.068 69.7079 127.034C70.0829 127 70.4153 126.832 70.7051 126.531C71.0005 126.236 71.2704 125.756 71.5147 125.091L71.8897 124.068L67.0488 110.909H69.2307L72.8443 121.341H72.9807L76.5943 110.909H78.7761L73.2193 125.909C72.9693 126.585 72.6596 127.145 72.2903 127.588C71.921 128.037 71.492 128.369 71.0034 128.585C70.5204 128.801 69.975 128.909 69.367 128.909ZM90.7037 113.841L88.8968 114.352C88.7832 114.051 88.6156 113.759 88.394 113.474C88.1781 113.185 87.8826 112.946 87.5076 112.759C87.1326 112.571 86.6525 112.477 86.0673 112.477C85.2662 112.477 84.5985 112.662 84.0645 113.031C83.536 113.395 83.2718 113.858 83.2718 114.42C83.2718 114.92 83.4537 115.315 83.8173 115.605C84.1809 115.895 84.7491 116.136 85.5218 116.33L87.465 116.807C88.6355 117.091 89.5076 117.526 90.0815 118.111C90.6554 118.69 90.9423 119.437 90.9423 120.352C90.9423 121.102 90.7264 121.773 90.2946 122.364C89.8684 122.955 89.2718 123.42 88.5048 123.761C87.7378 124.102 86.8457 124.273 85.8287 124.273C84.4934 124.273 83.3883 123.983 82.5133 123.403C81.6383 122.824 81.0843 121.977 80.8514 120.864L82.7605 120.386C82.9423 121.091 83.286 121.619 83.7917 121.972C84.3031 122.324 84.9707 122.5 85.7946 122.5C86.7321 122.5 87.4764 122.301 88.0275 121.903C88.5843 121.5 88.8628 121.017 88.8628 120.455C88.8628 120 88.7037 119.619 88.3855 119.312C88.0673 119 87.5787 118.767 86.9196 118.614L84.7378 118.102C83.5389 117.818 82.6582 117.378 82.0957 116.781C81.5389 116.179 81.2605 115.426 81.2605 114.523C81.2605 113.784 81.4679 113.131 81.8826 112.562C82.3031 111.994 82.8741 111.548 83.5957 111.224C84.323 110.901 85.1468 110.739 86.0673 110.739C87.3628 110.739 88.3798 111.023 89.1184 111.591C89.8628 112.159 90.3912 112.909 90.7037 113.841Z" fill="white"/>
</svg>
