<svg width="42" height="42" viewBox="0 0 42 42" fill="none" xmlns="http://www.w3.org/2000/svg">
<g clip-path="url(#clip0_24_74)">
<path d="M20.9987 41.9994C16.1403 41.9988 11.4326 40.3134 7.67738 37.2308C3.92213 34.1483 1.35128 29.8592 0.403944 25.0941C-0.543394 20.3289 0.191433 15.3825 2.48207 11.098C4.77271 6.81348 8.47771 3.45586 12.9664 1.59702C17.4552 -0.261829 22.4492 -0.507019 27.0983 0.903657C31.7474 2.31433 35.7636 5.29355 38.4625 9.33334C41.1614 13.3731 42.3765 18.224 41.9 23.0589C41.4235 27.8939 39.2848 32.4137 35.8493 35.849C33.9035 37.8052 31.5898 39.3568 29.0407 40.4124C26.4915 41.4681 23.7578 42.0072 20.9987 41.9994ZM20.9987 29.7142C31.1307 29.7142 31.3235 29.7142 31.4625 29.8382C31.5915 29.9382 31.6026 30.0074 31.6286 30.4984C31.6128 30.7428 31.6604 30.987 31.7672 31.2074C31.8446 31.3172 31.9347 31.4176 32.0348 31.5072C32.1828 31.588 32.3486 31.6302 32.5172 31.6302C32.6858 31.6302 32.8517 31.588 32.9996 31.5072C33.0963 31.4167 33.1849 31.3184 33.2653 31.2132C33.3653 31.0462 33.3732 30.9396 33.3932 27.3626C33.4012 24.8526 33.3863 23.5268 33.3463 23.1878C33.2925 22.8489 33.2133 22.5145 33.108 22.1878C32.9953 21.8621 32.8526 21.5467 32.6832 21.2464C32.5134 20.9736 32.3232 20.7141 32.1129 20.471C31.9084 20.2547 31.6876 20.0545 31.4528 19.8714C31.2359 19.7164 31.0093 19.5759 30.7741 19.4505C30.5478 19.3468 30.3158 19.2549 30.0797 19.1761C29.7337 19.0681 29.2314 19.0612 21.1364 19.0492H19.0299C13.8599 19.0492 12.4559 19.0654 12.1969 19.1234C11.9517 19.1827 11.7099 19.2571 11.4743 19.347C11.2033 19.466 10.9445 19.6103 10.6998 19.7767C10.4218 19.9723 10.1639 20.1958 9.93129 20.4437C9.70122 20.6931 9.49546 20.9629 9.31508 21.2503C9.14527 21.5505 9.00224 21.8659 8.8893 22.1917C8.78636 22.5096 8.70842 22.8346 8.65492 23.1644C8.60992 23.4814 8.59702 24.6512 8.60902 27.3392C8.62502 30.9452 8.62897 31.0541 8.73598 31.2201C8.81393 31.3276 8.90307 31.4261 9.00258 31.514C9.14027 31.6155 9.3125 31.6597 9.48207 31.6371C9.65101 31.6589 9.8215 31.6163 9.96058 31.5179C10.0579 31.4281 10.1465 31.3297 10.2262 31.224C10.3405 31.0018 10.3906 30.7522 10.3698 30.5033C10.3968 30.0123 10.4078 29.9431 10.5358 29.8431C10.6728 29.7131 10.8657 29.7142 20.9987 29.7142ZM22.8082 10.2865H20.942C16.849 10.2865 13.8775 10.3169 13.7145 10.3519C13.4652 10.4195 13.2245 10.5153 12.9967 10.6371C12.6865 10.7998 12.4078 11.0175 12.1745 11.2787C11.9227 11.5379 11.7238 11.843 11.5885 12.1781C11.4684 12.4565 11.375 12.7461 11.3102 13.0423C11.2762 13.2343 11.2537 14.1808 11.2457 15.7748C11.2457 17.8338 11.2576 18.153 11.3346 18.223C11.3515 18.2376 11.3709 18.2493 11.3922 18.2562C11.4135 18.2631 11.4363 18.265 11.4586 18.263C11.5826 18.2542 11.7056 18.2326 11.8248 18.1976C12.1382 18.1351 12.4554 18.0924 12.7741 18.0697C12.9876 18.0691 13.1997 18.0348 13.403 17.9691C13.4593 17.8849 13.4933 17.7887 13.5026 17.6878C13.5447 17.4894 13.6138 17.2973 13.7077 17.1175C13.8091 16.8898 13.9624 16.689 14.1549 16.5306C14.3254 16.3968 14.5119 16.2853 14.7106 16.1986C15.1016 16.1099 15.5044 16.0822 15.9039 16.1165C16.1639 16.1165 16.4891 16.1165 16.8981 16.1165C18.8081 16.1365 18.8077 16.1365 19.0827 16.2865C19.2668 16.394 19.4351 16.5261 19.5827 16.68C19.7179 16.8361 19.8309 17.0106 19.9186 17.1976C19.9854 17.3543 20.0372 17.5164 20.0729 17.683C20.0877 17.7875 20.1239 17.8876 20.1803 17.9769C20.2313 18.0329 20.4598 18.054 20.9938 18.054C21.5278 18.054 21.7563 18.0319 21.8073 17.9769C21.8643 17.8643 21.9069 17.7456 21.9342 17.6224C21.98 17.4522 22.0377 17.2852 22.1051 17.1224C22.1835 16.9612 22.2843 16.8116 22.4049 16.679C22.5487 16.5323 22.7116 16.4064 22.8903 16.305L23.1754 16.1351H27.2194C27.5053 16.2735 27.7674 16.4572 27.9948 16.679C28.1332 16.8335 28.2476 17.0083 28.3346 17.1966C28.4008 17.3528 28.4502 17.5152 28.4811 17.682C28.495 17.783 28.5314 17.8797 28.5885 17.9642C28.7901 18.0309 29.0012 18.0653 29.2135 18.0648C29.5348 18.0884 29.8544 18.1311 30.1705 18.1927C30.2871 18.2276 30.4076 18.2489 30.5289 18.2572C30.551 18.2598 30.5732 18.258 30.5944 18.2513C30.6156 18.2446 30.6354 18.233 30.652 18.2181C30.729 18.1481 30.7409 17.8269 30.7409 15.7689C30.7409 14.2619 30.7124 13.2414 30.6754 13.0374C30.6112 12.7412 30.5191 12.4516 30.3991 12.1732C30.264 11.8405 30.069 11.5361 29.8239 11.2738C29.5944 11.0105 29.3147 10.7946 29.0016 10.64C28.7536 10.509 28.4905 10.4084 28.2184 10.3402C28.0324 10.3062 26.3112 10.2855 22.8102 10.2855L22.8082 10.2865Z" fill="white"/>
</g>
<defs>
<clipPath id="clip0_24_74">
<rect width="41.998" height="41.998" fill="white"/>
</clipPath>
</defs>
</svg>
