<svg width="125" height="142" viewBox="0 0 125 142" fill="none" xmlns="http://www.w3.org/2000/svg">
<path d="M106.188 142H18.188C13.4141 142 8.8361 140.103 5.46045 136.728C2.08479 133.352 0.187988 128.774 0.187988 124V96H124.188V124C124.188 128.774 122.291 133.352 118.916 136.728C115.54 140.103 110.962 142 106.188 142ZM124.188 94H0.187988V18C0.187988 13.2261 2.08479 8.64812 5.46045 5.27246C8.8361 1.89681 13.4141 0 18.188 0H106.188C110.962 0 115.54 1.89681 118.916 5.27246C122.291 8.64812 124.188 13.2261 124.188 18V94Z" fill="#3A4B4C"/>
</svg>
