<svg width="10" height="36" viewBox="0 0 10 36" fill="none" xmlns="http://www.w3.org/2000/svg">
<path opacity="0.4" d="M9.18001 30.5661C9.18891 29.9745 9.07997 29.387 8.85955 28.8379C8.63914 28.2889 8.31165 27.7891 7.89618 27.3679C7.4807 26.9467 6.98554 26.6123 6.43956 26.3843C5.89358 26.1564 5.30768 26.0393 4.71601 26.0401C4.11968 26.033 3.52795 26.1452 2.97561 26.3701C2.42328 26.5951 1.92151 26.9282 1.49981 27.3499C1.07811 27.7716 0.744991 28.2733 0.520056 28.8257C0.29512 29.378 0.182906 29.9697 0.190015 30.5661C0.182906 31.1624 0.29512 31.7541 0.520056 32.3065C0.744991 32.8588 1.07811 33.3606 1.49981 33.7823C1.92151 34.204 2.42328 34.5371 2.97561 34.762C3.52795 34.987 4.11968 35.0992 4.71601 35.0921C5.30768 35.0928 5.89358 34.9758 6.43956 34.7478C6.98554 34.5198 7.4807 34.1855 7.89618 33.7642C8.31165 33.343 8.63914 32.8433 8.85955 32.2942C9.07997 31.7451 9.18891 31.1577 9.18001 30.5661ZM9.18001 4.52607C9.18891 3.93448 9.07997 3.34702 8.85955 2.79795C8.63914 2.24887 8.31165 1.74915 7.89618 1.3279C7.4807 0.906655 6.98554 0.572306 6.43956 0.344339C5.89358 0.116371 5.30768 -0.000656584 4.71601 7.36694e-05C4.11968 -0.00703509 3.52795 0.105178 2.97561 0.330114C2.42328 0.555049 1.92151 0.888167 1.49981 1.30987C1.07811 1.73157 0.744991 2.23334 0.520056 2.78567C0.29512 3.33801 0.182906 3.92974 0.190015 4.52607C0.182906 5.12241 0.29512 5.71414 0.520056 6.26647C0.744991 6.81881 1.07811 7.32058 1.49981 7.74228C1.92151 8.16398 2.42328 8.4971 2.97561 8.72203C3.52795 8.94697 4.11968 9.05918 4.71601 9.05207C5.30768 9.0528 5.89358 8.93578 6.43956 8.70781C6.98554 8.47984 7.4807 8.14549 7.89618 7.72425C8.31165 7.303 8.63914 6.80328 8.85955 6.2542C9.07997 5.70513 9.18891 5.11767 9.18001 4.52607Z" fill="#3A4B4C"/>
</svg>
