<svg width="5" height="17" viewBox="0 0 5 17" fill="none" xmlns="http://www.w3.org/2000/svg">
<path opacity="0.4" d="M4.98707 14.381C4.99038 14.1162 4.94109 13.8535 4.84207 13.6079C4.74304 13.3624 4.59625 13.139 4.4102 12.9506C4.22415 12.7622 4.00255 12.6126 3.75826 12.5106C3.51396 12.4085 3.25183 12.356 2.98707 12.356C2.72022 12.3526 2.45539 12.4027 2.20819 12.5033C1.96098 12.6039 1.73641 12.7529 1.5477 12.9416C1.35899 13.1303 1.20996 13.3549 1.10938 13.6021C1.0088 13.8493 0.958716 14.1141 0.962073 14.381C0.958699 14.6484 1.00897 14.9137 1.10992 15.1613C1.21087 15.4089 1.36044 15.6337 1.54979 15.8225C1.73915 16.0113 1.96444 16.1602 2.21234 16.2604C2.46024 16.3607 2.72572 16.4102 2.99307 16.406C3.25733 16.4052 3.51881 16.3521 3.76241 16.2497C4.00601 16.1472 4.2269 15.9975 4.41231 15.8093C4.59772 15.621 4.74398 15.3978 4.84263 15.1526C4.94128 14.9075 4.99038 14.6452 4.98707 14.381ZM4.98707 2.73298C4.99038 2.46824 4.94109 2.20548 4.84207 1.95994C4.74304 1.71439 4.59625 1.49095 4.4102 1.30258C4.22415 1.11421 4.00255 0.96465 3.75826 0.862581C3.51396 0.760512 3.25183 0.707962 2.98707 0.707983C2.72022 0.704626 2.45539 0.75471 2.20819 0.855287C1.96098 0.955865 1.73641 1.1049 1.5477 1.29361C1.35899 1.48232 1.20996 1.70689 1.10938 1.9541C1.0088 2.2013 0.958716 2.46613 0.962073 2.73298C0.958716 2.99984 1.0088 3.26467 1.10938 3.51187C1.20996 3.75907 1.35899 3.98364 1.5477 4.17236C1.73641 4.36107 1.96098 4.5101 2.20819 4.61068C2.45539 4.71125 2.72022 4.76134 2.98707 4.75798C3.25183 4.758 3.51396 4.70546 3.75826 4.60339C4.00255 4.50132 4.22415 4.35176 4.4102 4.16339C4.59625 3.97501 4.74304 3.75158 4.84207 3.50603C4.94109 3.26049 4.99038 2.99772 4.98707 2.73298Z" fill="#3A4B4C"/>
</svg>
