<svg width="43" height="42" viewBox="0 0 43 42" fill="none" xmlns="http://www.w3.org/2000/svg">
<path d="M21.1732 42C15.9688 41.9931 10.9519 40.0542 7.09607 36.5586C3.24027 33.063 0.819818 28.2599 0.304079 23.0811C-0.211661 17.9022 1.21437 12.7166 4.30506 8.5293C7.39574 4.34196 11.9308 1.45117 17.0316 0.417969C18.405 0.140904 19.8024 0.000914656 21.2035 0C25.6589 0.0040444 29.9985 1.42302 33.5951 4.05273C36.5977 6.24502 38.9635 9.19558 40.4515 12.6025C41.9396 16.0095 42.4962 19.7508 42.0638 23.4434C41.6315 27.1359 40.2263 30.6471 37.9916 33.6182C35.7568 36.5893 32.7729 38.9131 29.3451 40.3525C26.7594 41.4451 23.9802 42.0057 21.1732 42ZM21.5316 10.0195C21.235 10.019 20.9427 10.0919 20.681 10.2314C20.4193 10.371 20.1964 10.5737 20.0316 10.8203L17.2982 15.4082L12.3285 16.708C12.0458 16.7819 11.7867 16.925 11.5736 17.125C11.3606 17.325 11.2004 17.5751 11.1088 17.8525C11.0171 18.13 10.9962 18.4263 11.0482 18.7139C11.1002 19.0014 11.2236 19.2713 11.4066 19.499L14.7347 23.6553L14.3754 29.1064C14.3594 29.3445 14.3932 29.5828 14.473 29.8076C14.5528 30.0324 14.6778 30.2384 14.8402 30.4131C15.0027 30.5878 15.1989 30.7273 15.4174 30.8232C15.6358 30.9192 15.8712 30.9693 16.1097 30.9707C16.3465 30.973 16.5815 30.9253 16.7982 30.8301L21.5316 28.8242L26.266 30.832C26.4723 30.9243 26.6963 30.9707 26.9222 30.9688H26.9525C27.192 30.9701 27.43 30.9223 27.6498 30.8271C27.8696 30.732 28.0669 30.5915 28.2299 30.416C28.3929 30.2405 28.5174 30.0339 28.5961 29.8076C28.6747 29.5814 28.7059 29.3403 28.6869 29.1016L28.3275 23.6533L31.6556 19.499C31.8395 19.2707 31.9634 18.9995 32.015 18.7109C32.0666 18.4224 32.0439 18.1255 31.9506 17.8477C31.8572 17.5698 31.6962 17.32 31.4808 17.1211C31.2655 16.9222 31.0035 16.781 30.7191 16.71L25.7494 15.4102L23.0502 10.8223C22.882 10.5749 22.6554 10.3722 22.391 10.2324C22.1266 10.0926 21.8307 10.0192 21.5316 10.0195Z" fill="white"/>
</svg>
