<svg width="125" height="142" viewBox="0 0 125 142" fill="none" xmlns="http://www.w3.org/2000/svg">
<path d="M106.187 142H18.187C13.4131 142 8.83513 140.103 5.45947 136.728C2.08382 133.352 0.187012 128.774 0.187012 124V96H124.187V124C124.187 128.774 122.29 133.352 118.915 136.728C115.539 140.103 110.961 142 106.187 142ZM124.187 94H0.187012V18C0.187012 13.2261 2.08382 8.64812 5.45947 5.27246C8.83513 1.89681 13.4131 0 18.187 0H106.187C110.961 0 115.539 1.89681 118.915 5.27246C122.29 8.64812 124.187 13.2261 124.187 18V94Z" fill="#3A4B4C"/>
<path d="M31.869 65.39C35.837 61.9593 38.9577 59.1487 41.231 56.958C43.5457 54.726 45.4677 52.4113 46.997 50.014C48.5264 47.6167 49.291 45.2193 49.291 42.822C49.291 40.342 48.6917 38.3993 47.493 36.994C46.3357 35.5887 44.4964 34.886 41.975 34.886C39.5364 34.886 37.635 35.6713 36.271 37.242C34.9484 38.7713 34.2457 40.838 34.163 43.442H27.343C27.467 38.73 28.8724 35.134 31.559 32.654C34.287 30.1327 37.7384 28.872 41.913 28.872C46.4184 28.872 49.9317 30.112 52.453 32.592C55.0157 35.072 56.297 38.3787 56.297 42.512C56.297 45.488 55.5324 48.3607 54.003 51.13C52.515 53.858 50.717 56.3173 48.609 58.508C46.5424 60.6573 43.897 63.158 40.673 66.01L37.883 68.49H57.537V74.38H27.405V69.234L31.869 65.39ZM62.8782 65.576V60.244L83.7102 30.36H92.2662V59.438H98.0322V65.576H92.2662V75H85.3222V65.576H62.8782ZM85.6322 37.552L71.0002 59.438H85.6322V37.552Z" fill="white"/>
<path d="M32.0386 124V106.545H34.1523V114.318H43.4591V106.545H45.5727V124H43.4591V116.193H34.1523V124H32.0386ZM54.8497 124.273C53.6679 124.273 52.631 123.991 51.7389 123.429C50.8525 122.866 50.1594 122.08 49.6594 121.068C49.165 120.057 48.9179 118.875 48.9179 117.523C48.9179 116.159 49.165 114.969 49.6594 113.952C50.1594 112.935 50.8525 112.145 51.7389 111.582C52.631 111.02 53.6679 110.739 54.8497 110.739C56.0315 110.739 57.0656 111.02 57.952 111.582C58.844 112.145 59.5372 112.935 60.0315 113.952C60.5315 114.969 60.7815 116.159 60.7815 117.523C60.7815 118.875 60.5315 120.057 60.0315 121.068C59.5372 122.08 58.844 122.866 57.952 123.429C57.0656 123.991 56.0315 124.273 54.8497 124.273ZM54.8497 122.466C55.7474 122.466 56.4861 122.236 57.0656 121.776C57.6452 121.315 58.0741 120.71 58.3525 119.96C58.631 119.21 58.7702 118.398 58.7702 117.523C58.7702 116.648 58.631 115.832 58.3525 115.077C58.0741 114.321 57.6452 113.71 57.0656 113.244C56.4861 112.778 55.7474 112.545 54.8497 112.545C53.952 112.545 53.2133 112.778 52.6338 113.244C52.0542 113.71 51.6253 114.321 51.3469 115.077C51.0685 115.832 50.9292 116.648 50.9292 117.523C50.9292 118.398 51.0685 119.21 51.3469 119.96C51.6253 120.71 52.0542 121.315 52.6338 121.776C53.2133 122.236 53.952 122.466 54.8497 122.466ZM72.1018 118.648V110.909H74.1132V124H72.1018V121.784H71.9655C71.6587 122.449 71.1814 123.014 70.5337 123.48C69.8859 123.94 69.0677 124.17 68.0791 124.17C67.2609 124.17 66.5337 123.991 65.8973 123.634C65.2609 123.27 64.7609 122.724 64.3973 121.997C64.0337 121.264 63.8518 120.341 63.8518 119.227V110.909H65.8632V119.091C65.8632 120.045 66.1302 120.807 66.6643 121.375C67.2041 121.943 67.8916 122.227 68.7268 122.227C69.2268 122.227 69.7354 122.099 70.2524 121.844C70.7751 121.588 71.2126 121.196 71.5649 120.668C71.9229 120.139 72.1018 119.466 72.1018 118.648ZM77.7971 124V110.909H79.7403V112.886H79.8767C80.1153 112.239 80.5471 111.713 81.1721 111.31C81.7971 110.906 82.5017 110.705 83.2858 110.705C83.4335 110.705 83.6182 110.707 83.8398 110.713C84.0614 110.719 84.229 110.727 84.3426 110.739V112.784C84.2744 112.767 84.1182 112.741 83.8739 112.707C83.6352 112.668 83.3824 112.648 83.1153 112.648C82.479 112.648 81.9108 112.781 81.4108 113.048C80.9165 113.31 80.5244 113.673 80.2346 114.139C79.9506 114.599 79.8085 115.125 79.8085 115.716V124H77.7971ZM95.9996 113.841L94.1927 114.352C94.0791 114.051 93.9115 113.759 93.6899 113.474C93.474 113.185 93.1785 112.946 92.8035 112.759C92.4285 112.571 91.9484 112.477 91.3632 112.477C90.5621 112.477 89.8944 112.662 89.3604 113.031C88.8319 113.395 88.5677 113.858 88.5677 114.42C88.5677 114.92 88.7496 115.315 89.1132 115.605C89.4768 115.895 90.045 116.136 90.8177 116.33L92.7609 116.807C93.9314 117.091 94.8035 117.526 95.3774 118.111C95.9513 118.69 96.2382 119.437 96.2382 120.352C96.2382 121.102 96.0223 121.773 95.5905 122.364C95.1643 122.955 94.5677 123.42 93.8007 123.761C93.0337 124.102 92.1416 124.273 91.1246 124.273C89.7893 124.273 88.6842 123.983 87.8092 123.403C86.9342 122.824 86.3802 121.977 86.1473 120.864L88.0564 120.386C88.2382 121.091 88.5819 121.619 89.0876 121.972C89.599 122.324 90.2666 122.5 91.0905 122.5C92.028 122.5 92.7723 122.301 93.3234 121.903C93.8802 121.5 94.1587 121.017 94.1587 120.455C94.1587 120 93.9996 119.619 93.6814 119.312C93.3632 119 92.8746 118.767 92.2155 118.614L90.0337 118.102C88.8348 117.818 87.9541 117.378 87.3916 116.781C86.8348 116.179 86.5564 115.426 86.5564 114.523C86.5564 113.784 86.7638 113.131 87.1785 112.562C87.599 111.994 88.17 111.548 88.8916 111.224C89.6189 110.901 90.4427 110.739 91.3632 110.739C92.6587 110.739 93.6757 111.023 94.4143 111.591C95.1587 112.159 95.6871 112.909 95.9996 113.841Z" fill="white"/>
</svg>
