<svg width="43" height="42" viewBox="0 0 43 42" fill="none" xmlns="http://www.w3.org/2000/svg">
<path d="M21.1732 42C15.9688 41.9931 10.9519 40.0542 7.09607 36.5586C3.24027 33.063 0.819818 28.2599 0.304079 23.0811C-0.211661 17.9022 1.21437 12.7166 4.30506 8.5293C7.39574 4.34196 11.9308 1.45117 17.0316 0.417969C18.405 0.140904 19.8024 0.000914656 21.2035 0C25.6589 0.0040444 29.9985 1.42302 33.5951 4.05273C36.5977 6.24502 38.9635 9.19558 40.4515 12.6025C41.9396 16.0095 42.4962 19.7508 42.0638 23.4434C41.6315 27.1359 40.2263 30.6471 37.9916 33.6182C35.7568 36.5893 32.7729 38.9131 29.3451 40.3525C26.7594 41.4451 23.9802 42.0057 21.1732 42ZM28.4857 31.4688L29.3138 31.6348C29.7048 31.7088 30.0325 31.776 30.3295 31.835C32.3135 32.23 32.4709 32.2588 32.5179 32.2588H32.5492C32.6537 32.2575 32.7565 32.2334 32.851 32.1885C32.9454 32.1436 33.0291 32.0793 33.0961 31.999C33.1644 31.9191 33.2122 31.8239 33.2367 31.7217C33.2612 31.6195 33.2613 31.5133 33.2367 31.4111L32.4554 27.5283C32.6053 27.2493 32.726 26.9554 32.8148 26.6514H32.7992C33.2089 25.4383 33.3305 24.1464 33.1556 22.8779C32.9808 21.6095 32.5141 20.3988 31.7914 19.3418C31.0687 18.2848 30.1101 17.4103 28.9916 16.7871C27.873 16.1639 26.6252 15.8093 25.3461 15.751C25.2841 15.751 25.2369 15.751 25.1459 15.751C22.9951 15.7655 20.9334 16.6133 19.3949 18.1162C17.8564 19.6191 16.9608 21.6598 16.8959 23.8096C16.8446 25.9998 17.6652 28.1216 19.1771 29.707C20.6891 31.2925 22.7682 32.212 24.9584 32.2646H24.975C26.1906 32.262 27.3904 31.9926 28.4906 31.4756L28.4857 31.4688ZM17.3773 9.69824C16.7463 9.69859 16.1173 9.76993 15.5023 9.91113C13.6791 10.3275 12.0507 11.3498 10.8842 12.8115C9.71759 14.2733 9.08099 16.0878 9.07947 17.958C9.07803 19.1801 9.35222 20.3871 9.88025 21.4893L9.099 25.3721C9.07403 25.4855 9.07785 25.6035 9.11072 25.7148C9.14359 25.8262 9.20395 25.9271 9.2865 26.0088C9.35419 26.0762 9.43515 26.1295 9.52381 26.165C9.61246 26.2006 9.7076 26.2177 9.8031 26.2158C9.84501 26.215 9.8868 26.2113 9.9281 26.2041L13.8656 25.4229C14.3912 25.6712 14.9417 25.8644 15.5072 25.999C15.2139 24.6023 15.2323 23.1581 15.5619 21.7695C15.8915 20.381 16.5237 19.0827 17.4135 17.9668C18.3032 16.8509 19.4281 15.945 20.7084 15.3145C21.9887 14.6839 23.3928 14.3444 24.8197 14.3193C24.1272 12.9367 23.0653 11.7724 21.7513 10.957C20.4374 10.1416 18.9237 9.70692 17.3773 9.7002V9.69824Z" fill="white"/>
</svg>
