<svg width="43" height="42" viewBox="0 0 43 42" fill="none" xmlns="http://www.w3.org/2000/svg">
<path d="M21.1733 42.0002C16.6623 41.9968 12.2718 40.5407 8.65277 37.8479C5.03369 35.155 2.37779 31.3679 1.07855 27.048C-0.220685 22.7282 -0.0943058 18.105 1.4389 13.8625C2.97211 9.62002 5.83149 5.98459 9.59223 3.49336C13.353 1.00213 17.8153 -0.212454 22.3198 0.0304721C26.8242 0.273398 31.131 1.96076 34.602 4.842C38.073 7.72323 40.5242 11.6458 41.5922 16.0285C42.6603 20.4113 42.288 25.0209 40.5317 29.176C38.9272 32.983 36.2346 36.2314 32.7905 38.5129C29.3463 40.7944 25.3046 42.0077 21.1733 42.0002ZM28.7514 19.9631C28.5191 21.5954 27.867 23.1401 26.8598 24.4455C25.7011 25.5114 24.2576 26.2158 22.7045 26.4738H22.7202C24.2484 26.9701 25.6576 27.776 26.8608 28.841C27.8131 29.9236 28.4657 31.2375 28.7524 32.6506V32.6418C29.1756 31.2289 29.9119 29.9301 30.9077 28.842C32.0943 27.7946 33.4751 26.9897 34.9711 26.4729H34.9555C33.4504 25.9458 32.0712 25.1102 30.9077 24.0197C29.8941 22.8452 29.158 21.4585 28.7524 19.9611L28.7514 19.9631ZM14.9233 10.3283C14.9233 10.3713 14.3609 14.2917 12.3139 16.4807C10.2829 18.6807 6.67338 19.2628 6.62738 19.2668H6.64301C8.73749 19.9456 10.6686 21.0509 12.3149 22.5129C13.6353 23.9912 14.5365 25.7965 14.9243 27.7404V27.7346C15.4964 25.7913 16.5068 24.0045 17.8774 22.5129C19.4999 21.0747 21.3899 19.9709 23.4399 19.2648C21.3714 18.5435 19.4773 17.398 17.8784 15.9006C16.487 14.2886 15.4775 12.383 14.9252 10.3264L14.9233 10.3283Z" fill="white"/>
</svg>
