<svg width="43" height="42" viewBox="0 0 43 42" fill="none" xmlns="http://www.w3.org/2000/svg">
<path d="M21.1848 42H21.1692C15.9656 41.9918 10.9498 40.0521 7.095 36.5566C3.24024 33.0612 0.820628 28.259 0.30496 23.0811C-0.210708 17.9031 1.21431 12.7183 4.30398 8.53125C7.39366 4.34422 11.9278 1.45319 17.0276 0.418945C18.401 0.141551 19.7984 0.00125044 21.1995 0C23.9573 0.00105057 26.6882 0.545243 29.2356 1.60156C31.7831 2.65788 34.0979 4.20548 36.0471 6.15625C37.9964 8.10702 39.5416 10.4225 40.596 12.9707C41.6504 15.5189 42.1927 18.2501 42.1917 21.0078C42.1906 23.7656 41.6464 26.4965 40.5901 29.0439C39.5338 31.5914 37.9862 33.9052 36.0354 35.8545C34.0847 37.8038 31.7692 39.3499 29.221 40.4043C26.6727 41.4587 23.9426 42.001 21.1848 42ZM13.2317 24.1885C12.258 24.1922 11.3257 24.5802 10.638 25.2695C9.9645 25.9673 9.58913 26.9004 9.59109 27.8701C9.5769 28.3447 9.65747 28.8172 9.82937 29.2598C10.0013 29.7024 10.2603 30.1057 10.5911 30.4463C10.9219 30.7869 11.3178 31.0575 11.7552 31.2422C12.1926 31.4269 12.6632 31.5228 13.138 31.5225H13.3098C14.1394 31.5173 14.9418 31.228 15.5843 30.7031C16.2267 30.1782 16.6707 29.4486 16.8411 28.6367C16.9041 28.3587 16.9038 27.9313 16.9348 23.4033V18.4648L17.0286 18.4473C17.1536 18.4193 27.6703 16.9258 27.7483 16.9258C27.7953 16.9258 27.8108 16.9522 27.8108 17.3262C27.8268 17.6842 27.8264 18.3796 27.8264 19.6396V19.8809C27.8264 21.5489 27.8268 22.8141 27.8108 22.8291C27.7045 22.7878 27.6008 22.7415 27.4993 22.6895C26.999 22.4713 26.4559 22.3668 25.9104 22.3848C25.365 22.4027 24.8308 22.5424 24.346 22.793C23.8611 23.0435 23.4379 23.3985 23.1077 23.833C22.7775 24.2675 22.5483 24.7705 22.4368 25.3047C22.3253 25.8389 22.3344 26.3915 22.4632 26.9219C22.592 27.4522 22.8368 27.9466 23.1809 28.3701C23.5251 28.7937 23.9597 29.1355 24.4524 29.3701C24.9452 29.6048 25.4838 29.7263 26.0296 29.7266C26.8236 29.7205 27.5953 29.4605 28.2307 28.9844C28.8662 28.5082 29.3321 27.8414 29.5608 27.0811L29.6702 26.7246L29.6858 19.3652V17.7393C29.7018 11.7493 29.7016 11.7493 29.4856 11.5713L29.4387 11.5215C29.4227 11.5145 29.4075 11.505 29.4075 11.499C29.3915 11.492 29.3922 11.4855 29.3772 11.4785C29.2832 11.3705 29.2212 11.2998 28.8772 11.2998C28.2992 11.2998 26.9857 11.4891 23.4397 11.9941L23.3929 12.001L23.1429 12.0361L23.0813 12.0459L22.1116 12.1855L20.846 12.3691C15.424 13.1441 15.4239 13.1435 15.2679 13.4365L15.2522 13.46L15.221 13.5049L15.1116 13.6982L15.096 19.1914L15.0794 24.6914L14.7522 24.5342C14.2777 24.3127 13.7593 24.1989 13.2356 24.2012L13.2317 24.1885Z" fill="white"/>
</svg>
