<svg width="43" height="42" viewBox="0 0 43 42" fill="none" xmlns="http://www.w3.org/2000/svg">
<path d="M21.1885 42C16.3299 42.0003 11.6211 40.3164 7.86524 37.2344C4.10934 34.1523 1.53888 29.8628 0.590825 25.0976C-0.357227 20.3325 0.375813 15.3865 2.66602 11.1016C4.95623 6.81662 8.66168 3.45796 13.1504 1.59862C17.6391 -0.260717 22.6339 -0.506108 27.2832 0.904286C31.9326 2.31468 35.9492 5.29319 38.6484 9.333C41.3476 13.3728 42.5623 18.2244 42.0859 23.0596C41.6095 27.8947 39.4709 32.4142 36.0352 35.8496C34.0896 37.805 31.776 39.3555 29.2275 40.4111C26.6791 41.4667 23.9469 42.0069 21.1885 42ZM14.2432 14.3359C12.8812 14.3359 12.7669 14.3524 12.2109 14.6094C11.853 14.7873 11.539 15.0422 11.292 15.3564C11.045 15.6707 10.8705 16.0359 10.7822 16.4258C10.7132 16.7618 10.7132 28.0478 10.7822 28.3828C10.9013 28.8802 11.1559 29.3356 11.5176 29.6973C11.8792 30.0589 12.3336 30.3126 12.8311 30.4316C12.9871 30.4666 17.4311 30.4834 21.4971 30.4834C25.5631 30.4834 30.0079 30.4675 30.1719 30.4355C30.6698 30.3163 31.1248 30.0617 31.4863 29.6992C31.8479 29.3368 32.1017 28.881 32.2197 28.3828C32.2857 28.0478 32.2857 16.7618 32.2197 16.4258C32.1316 16.0363 31.9566 15.6716 31.709 15.3584C31.4613 15.0452 31.1467 14.7918 30.7881 14.6162C30.2441 14.3542 30.1308 14.3389 28.7588 14.3389H27.5772L27.0566 13.293C26.6006 12.383 26.4 12.3714 26.207 12.3594C26.1362 12.3591 26.0671 12.3435 26.0029 12.3135L25.7783 12.2051H21.4688C17.3958 12.2051 17.1513 12.2052 16.9893 12.2822C16.9277 12.3082 16.8633 12.3249 16.7969 12.332C16.5899 12.367 16.3961 12.4004 15.9551 13.2734L15.4277 14.335L14.2432 14.3359ZM21.5303 27.7109C21.3853 27.7109 21.2388 27.7053 21.0938 27.6933C19.7251 27.5806 18.4531 26.9433 17.543 25.915C16.6328 24.8867 16.1547 23.546 16.209 22.1738C16.2633 20.8016 16.8454 19.5039 17.834 18.5508C18.8226 17.5976 20.1414 17.0628 21.5147 17.0586H21.5254C21.8175 17.0595 22.1092 17.0842 22.3975 17.1318C23.7152 17.3507 24.9022 18.0569 25.7236 19.1103C26.5451 20.1638 26.9409 21.4879 26.832 22.8193C26.7232 24.1507 26.1184 25.3919 25.1367 26.2978C24.1551 27.2038 22.8681 27.708 21.5322 27.7099L21.5303 27.7109ZM21.4356 18.3642C21.2146 18.3638 20.9938 18.3803 20.7754 18.4141C19.7753 18.5923 18.8788 19.1383 18.2617 19.9453C17.6447 20.7523 17.3523 21.7616 17.4424 22.7734C17.5325 23.7853 17.9981 24.7269 18.7481 25.4121C19.498 26.0973 20.4773 26.4759 21.4932 26.4746C22.2923 26.4742 23.0735 26.2389 23.7393 25.7969C24.405 25.3548 24.9259 24.7266 25.2363 23.9902C25.5468 23.2539 25.6337 22.4415 25.4854 21.6562C25.337 20.871 24.96 20.1476 24.4023 19.5752C24.0131 19.1866 23.5507 18.8781 23.042 18.6689C22.5333 18.4597 21.9885 18.3541 21.4385 18.3564L21.4356 18.3642Z" fill="white"/>
</svg>
